<?xml version="1.0" encoding="utf-8"?>
<svg xmlns="http://www.w3.org/2000/svg" width="72" height="68" viewBox="0 0 72 68" fill="none">
<g filter="url(#filter0_f_4301_681)">
<path d="M56.6343 19.8048C53.0788 14.6262 46.1262 12 35.9732 12H35.9567C25.8191 12.0028 18.8836 14.6301 15.3435 19.8088C12.3797 24.1436 12 29.6703 12 34C12 38.3297 12.3797 43.8558 15.3435 48.1906C18.8836 53.3687 25.8191 55.996 35.9572 56H35.9772C46.1296 56 53.0794 53.3744 56.6349 48.1957C59.617 43.8513 60 38.3275 60 34.0006C60 29.6737 59.6181 24.1499 56.6355 19.806H56.6349L56.6343 19.8048Z" fill="url(#paint0_linear_4301_681)"/>
</g>
<path d="M55.973 20.2225C52.5315 15.2099 45.8018 12.6676 35.9743 12.6676H35.9578C26.1452 12.6704 19.432 15.2133 16.0059 20.2259C13.1373 24.4219 12.7696 29.7712 12.7696 33.962C12.7696 38.1529 13.1373 43.5016 16.0059 47.6976C19.4326 52.7096 26.1457 55.2531 35.9584 55.2565H35.9772C45.8041 55.2565 52.5309 52.7147 55.9724 47.7021C58.8593 43.4971 59.2298 38.1501 59.2298 33.962C59.2298 29.774 58.8599 24.4276 55.973 20.2225Z" fill="#09090A"/>
<path d="M48.3333 34C48.3333 32.1435 47.5958 30.363 46.2831 29.0503C44.9703 27.7375 43.1898 27 41.3333 27C38.3 27 35.7917 29.3917 34.3917 33.65C33.3417 36.8584 31.5917 38.6667 29.6667 38.6667C28.429 38.6667 27.242 38.175 26.3668 37.2999C25.4917 36.4247 25 35.2377 25 34C25 32.7623 25.4917 31.5754 26.3668 30.7002C27.242 29.825 28.429 29.3334 29.6667 29.3334H30.3667L29.4333 30.2667C29.3065 30.3789 29.2071 30.5188 29.1428 30.6754C29.0784 30.832 29.0508 31.0014 29.062 31.1703C29.0733 31.3393 29.1232 31.5035 29.2077 31.6502C29.2923 31.7969 29.4094 31.9223 29.55 32.0167C29.7841 32.1862 30.0706 32.2674 30.3588 32.2461C30.647 32.2247 30.9184 32.1021 31.125 31.9L33.9833 28.9834C34.0965 28.8795 34.1868 28.7533 34.2486 28.6127C34.3104 28.4722 34.3424 28.3203 34.3424 28.1667C34.3424 28.0131 34.3104 27.8612 34.2486 27.7206C34.1868 27.5801 34.0965 27.4539 33.9833 27.35L31.125 24.4334C30.9184 24.2312 30.647 24.1087 30.3588 24.0873C30.0706 24.066 29.7841 24.1472 29.55 24.3167C29.4094 24.4111 29.2923 24.5365 29.2077 24.6832C29.1232 24.8299 29.0733 24.9941 29.062 25.1631C29.0508 25.332 29.0784 25.5013 29.1428 25.658C29.2071 25.8146 29.3065 25.9544 29.4333 26.0667L30.3667 27H29.6667C27.8101 27 26.0297 27.7375 24.7169 29.0503C23.4042 30.363 22.6667 32.1435 22.6667 34C22.6667 35.8565 23.4042 37.637 24.7169 38.9498C26.0297 40.2625 27.8101 41 29.6667 41C32.7 41 35.2083 38.6084 36.6083 34.35C37.6583 31.1417 39.4083 29.3334 41.3333 29.3334C42.571 29.3334 43.758 29.825 44.6332 30.7002C45.5083 31.5754 46 32.7623 46 34C46 35.2377 45.5083 36.4247 44.6332 37.2999C43.758 38.175 42.571 38.6667 41.3333 38.6667H40.6333L41.5667 37.7334C41.6935 37.6211 41.7929 37.4813 41.8572 37.3247C41.9216 37.168 41.9492 36.9987 41.9379 36.8297C41.9267 36.6607 41.8768 36.4966 41.7922 36.3499C41.7077 36.2032 41.5906 36.0778 41.45 35.9834C41.2159 35.8139 40.9294 35.7327 40.6412 35.754C40.353 35.7753 40.0816 35.8979 39.875 36.1L37.0167 39.0167C36.9035 39.1205 36.8132 39.2467 36.7513 39.3873C36.6895 39.5279 36.6576 39.6798 36.6576 39.8334C36.6576 39.9869 36.6895 40.1388 36.7513 40.2794C36.8132 40.42 36.9035 40.5462 37.0167 40.65L39.875 43.5667C40.0816 43.7688 40.353 43.8914 40.6412 43.9127C40.9294 43.9341 41.2159 43.8528 41.45 43.6834C41.5906 43.5889 41.7077 43.4636 41.7922 43.3168C41.8768 43.1701 41.9267 43.006 41.9379 42.837C41.9492 42.668 41.9216 42.4987 41.8572 42.3421C41.7929 42.1854 41.6935 42.0456 41.5667 41.9334L40.6333 41H41.3333C43.1898 41 44.9703 40.2625 46.2831 38.9498C47.5958 37.637 48.3333 35.8565 48.3333 34Z" fill="#84CC16"/>
<defs>
<filter id="filter0_f_4301_681" x="0.598575" y="0.598575" width="70.8029" height="66.8029" filterUnits="userSpaceOnUse" color-interpolation-filters="sRGB">
<feFlood flood-opacity="0" result="BackgroundImageFix"/>
<feBlend mode="normal" in="SourceGraphic" in2="BackgroundImageFix" result="shape"/>
<feGaussianBlur stdDeviation="5.70071" result="effect1_foregroundBlur_4301_681"/>
</filter>
<linearGradient id="paint0_linear_4301_681" x1="11.9994" y1="33.9994" x2="59.9994" y2="33.9994" gradientUnits="userSpaceOnUse">
<stop stop-color="#84CC16"/>
<stop offset="1" stop-color="#84CC16" stop-opacity="0.25"/>
</linearGradient>
</defs>
</svg>